{"title":"IMAX.Coral.Reef.Adventure.2003.720p.BRRip.Xvid.AC3.DiVERSiTY","uid":6890287,"size":1335173005,"categoryP":"video","categoryS":"hd___movies","magnet":"?xt=urn:btih:4e7a0b3cfa81dc47d1303a93c9ed68d536bde658&amp;dn=IMAX.Coral.Reef.Adventure.2003.720p.BRRip.Xvid.AC3.DiVERSiTY&amp;tr=udp%3A%2F%2Ftracker.openbittorrent.com%3A80&amp;tr=udp%3A%2F%2Fopen.demonii.com%3A1337&amp;tr=udp%3A%2F%2Ftracker.coppersurfer.tk%3A6969&amp;tr=udp%3A%2F%2Fexodus.desync.com%3A6969","seeders":1,"leechers":2,"uploader":"TvTeam","files":4,"time":1323985084,"description":". \n &lt;a href=&quot;\nhttp://www.torrenting.com&quot; rel=&quot;nofollow&quot; target=&quot;_NEW&quot;&gt;\nhttp://www.torrenting.com&lt;/a&gt;          :     Once &amp; For all ;)\n\n\n               www . Torrenting . Com \n\n(((((((((((((= Enjoy No RAR releases =))))))))))))))))))))\n\n\n...................................NFO:....................................\n\n.                                                                \n @@@@@@@   @@@  @@@  @@@  @@@@@@@@  @@@@@@@   @@@@@@    @@@  @@@@@@@  @@@ @@@ \n @@@@@@@@  @@@  @@@  @@@  @@@@@@@@  @@@@@@@@  @@@@@@@   @@@  @@@@@@@  @@@ @@@ \n @@!  @@@  @@!  @@!  @@@  @@!       @@!  @@@  !@@       @@!    @@!    @@! !@@ \n !@!  @!@  !@!  !@!  @!@  !@!       !@!  @!@  !@!       !@!    !@!    !@! @!! \n @!@  !@!  !!@  @!@  !@!  @!!!:!    @!@!!@!   !!@@!!    !!@    @!!     !@!@!  \n !@!  !!!  !!!  !@!  !!!  !!!!!:    !!@!@!     !!@!!!   !!!    !!!      @!!!  \n !!:  !!!  !!:  :!:  !!:  !!:       !!: :!!        !:!  !!:    !!:      !!:   \n :!:  !:!  :!:   ::!!:!   :!:       :!:  !:!      !:!   :!:    :!:      :!:   \n :::: ::   ::    ::::     :: ::::   ::   :::  :::: ::    ::     ::       ::   \n :: :  :   :       :      : :: ::    :   : :  :: : :    :       :        :       \n\n\n   \nGeneral\n\nComplete name                    : IMAX.Coral.Reef.Adventure.2003.720p.BRRips.Xvid.AC3.DiVERSiTY\nFormat                           : AVI\nFormat/Info                      : Audio Video Interleave\nFile size                        : 1.24 GiB\nDuration                         : 46mn 19s\nOverall bit rate                 : 3 843 Kbps\nVideo-Source                     : 720p.BluRay-aAF   \nEncoded by                       : Hibees\n    \n\n\nVideo\n\nFormat                           : MPEG-4 Visual\nFormat profile                   : Streaming Video@L1\nFormat settings, BVOP            : Yes\nFormat settings, QPel            : No\nFormat settings, GMC             : No warppoints\nFormat settings, Matrix          : Default\nCodec ID                         : XVID\nCodec ID/Hint                    : XviD\nDuration                         : 46mn 19s\nBit rate                         : 3 387 Kbps\nWidth                            : 1 280 pixels\nHeight                           : 720 pixels\nDisplay aspect ratio             : 16/9\nFrame rate                       : 23.976 fps\nResolution                       : 24 bits\nColorimetry                      : 4:2:0\nScan type                        : Progressive\nBits/(Pixel*Frame)               : 0.153\nStream size                      : 1.10 GiB (88%)\nWriting library                  : XviD 1.2.1 (UTC 2008-12-04)\n\n\n\nAudio\n\nFormat                           : AC-3\nFormat/Info                      : Audio Coding 3\nCodec ID                         : 2000\nDuration                         : 46mn 19s\nBit rate mode                    : Constant\nBit rate                         : 448 Kbps\nChannel(s)                       : 6 channels\nChannel positions                : Front: L C R, Surround: L R, LFE\nSampling rate                    : 48.0 KHz\nStream size                      : 148 MiB (12%)\nAlignment                        : Aligned on interleaves\nInterleave, duration             : 64 ms (1.53 video frames)\nInterleave, preload duration     : 192 ms\nTitle                            : aaf-imax.coral.reef.adventure.720p.bluray.x264\n\n\n  \n   \nPlot:\n\nIMAX director Greg MacGillivray's 2003 film, Coral Reef Adventure, follows \nthe exploits and crusades of the husband and wife underwater filmmaking duo \nof Howard and Michelle Hall as they embark on a ten-month expedition of the \nworld's most vibrant and endangered coral reefs. Beginning at the Great \nBarrier Reef off the Australian coast, the Halls explore the vast underwater \necosystem and the scores of wildlife that thrive off of it. \n\n\n\nGreets:\n\nTo Everyone who makes p2p possible...... Thanks.","torrent":{"xt":"urn:btih:4e7a0b3cfa81dc47d1303a93c9ed68d536bde658","amp;dn":"IMAX.Coral.Reef.Adventure.2003.720p.BRRip.Xvid.AC3.DiVERSiTY","amp;tr":["udp%3A%2F%2Ftracker.openbittorrent.com%3A80","udp%3A%2F%2Fopen.demonii.com%3A1337","udp%3A%2F%2Ftracker.coppersurfer.tk%3A6969","udp%3A%2F%2Fexodus.desync.com%3A6969"],"infoHash":"4e7a0b3cfa81dc47d1303a93c9ed68d536bde658","infoHashBuffer":{"type":"Buffer","data":[78,122,11,60,250,129,220,71,209,48,58,147,201,237,104,213,54,189,230,88]},"announce":[],"urlList":[]}}